<?xml version="1.0" encoding="iso-8859-1"?>
<!-- Uploaded to: SVG Repo, www.svgrepo.com, Generator: SVG Repo Mixer Tools -->
<svg height="800px" width="800px" version="1.1" id="Layer_1" xmlns="http://www.w3.org/2000/svg" xmlns:xlink="http://www.w3.org/1999/xlink" 
	 viewBox="0 0 512 512" xml:space="preserve">
<circle style="fill:#88C5CC;" cx="256" cy="256" r="256"/>
<circle style="fill:#FFD464;" cx="105.816" cy="266" r="52"/>
<circle style="fill:#FFE399;" cx="105.816" cy="266" r="42.548"/>
<path style="fill:#2995CC;" d="M452.352,420.212c-0.28-1.444-0.428-2.936-0.428-4.476c0-12.564-9.808-22.732-22.052-22.732
	c-12.236,0-22.092,10.168-22.092,22.732c0,12.54-9.844,22.688-22.056,22.736c-12.2-0.048-22.196-10.196-22.196-22.736
	c0-12.564-9.892-22.732-22.132-22.732s-22.14,10.168-22.14,22.732c0,12.572-9.912,22.74-22.136,22.74
	c-7.26,0-13.684-3.6-17.724-9.144c-2.756-3.792-4.416-8.484-4.416-13.584c0-4.432-1.252-8.56-3.388-12.052
	c-3.916-6.412-10.828-10.684-18.752-10.684c-6.12,0-11.656,2.548-15.664,6.656c-4.004,4.108-6.476,9.796-6.476,16.08
	c0,3.112-0.608,6.08-1.716,8.776c-3.34,8.2-11.228,13.952-20.424,13.952c-10.704,0-19.612-7.78-21.68-18.14
	c-0.292-1.476-0.444-3.008-0.444-4.584s-0.16-3.108-0.452-4.592c-0.076-0.348-0.172-0.68-0.256-1.024
	c-0.088-0.384-0.176-0.768-0.28-1.14c-2.792-9.256-11.208-15.98-21.152-15.98c-12.24,0-22.14,10.168-22.14,22.732
	c0,12.572-9.888,22.744-22.136,22.744c-8.368,0-15.64-4.756-19.404-11.784c-1.648-3.176-2.592-6.808-2.592-10.688l0.012,2.284
	c-0.084-0.836-0.148-1.68-0.148-2.54c0-12.568-9.892-22.712-22.12-22.712c-11.284,0-20.568,8.68-21.932,19.892
	C100.652,473.188,173.772,512,256,512C334.876,512,405.392,476.304,452.352,420.212z"/>
<polygon style="fill:#66401F;" points="268,68 244,68 232,268 280,268 "/>
<polygon style="fill:#99602E;" points="336,460 396,292 256,256 116,292 176,460 "/>
<polygon style="fill:#805026;" points="336,460 396,292 256,256 256,460 "/>
<polygon style="fill:#734822;" points="256,256 256,260.108 380,292 320,460 336,460 396,292 "/>
<path style="fill:#C2E2F2;" d="M256,512c62.92,0,120.504-22.744,165.08-60.4c-9.436-2.14-16.524-9.936-16.524-19.268
	c0-10.98-9.644-19.868-21.572-19.868c-11.92,0-21.584,8.888-21.584,19.868c0,10.984-9.652,19.872-21.58,19.872
	c-11.928,0-21.584-8.888-21.584-19.872c0-10.98-9.64-19.868-21.572-19.868s-21.58,8.888-21.58,19.868
	c0,10.984-9.656,19.872-21.584,19.872c-11.92,0-21.572-8.888-21.572-19.872c0-10.98-9.656-19.868-21.584-19.868
	c-11.92,0-21.58,8.888-21.58,19.868c0,10.984-9.64,19.872-21.58,19.872c-11.92,0-21.568-8.888-21.568-19.872
	c0-10.98-9.644-19.868-21.572-19.868c-11.92,0-21.564,8.888-21.564,19.868c0,8.136-5.288,15.096-12.872,18.176
	C134.408,488.812,192.476,512,256,512z"/>
<path style="fill:#FFF1CC;" d="M104,96c10.132,20,10.132,113.328,0,132c30.408,18.664,289.984,18.668,328,0
	c-10.14-18.668-10.14-112,0-132H104z"/>
<path style="fill:#F2E5C2;" d="M432,96h-16c-10.14,20-10.14,113.332,0,132c-18.316,8.996-88.076,13.652-158.852,13.98
	C333.116,242.332,412.3,237.672,432,228C421.86,209.332,421.86,116,432,96z"/>
<path d="M440,100H96c-2.208,0-4-1.792-4-4s1.792-4,4-4h344c2.212,0,4,1.792,4,4S442.212,100,440,100z"/>
</svg>